<?xml version="1.0" encoding="utf-8"?>
<svg width="1000px" height="1000" xmlns="http://www.w3.org/2000/svg">
  <path d="M 500.9 40.8 C 424.4 40.8 397.2 0 335 0 C 272.8 0 229.4 57 179.5 127 C 121.7 209.2 75 336.9 75 458.1 C 75 652.5 201.4 755.6 325.8 755.6 C 391.9 755.6 447 712.2 499.845 712.2 C 552.689 712.2 607.789 755.6 673.889 755.6 C 798.289 755.6 924.689 652.5 924.689 458.1 C 924.689 336.9 877.989 209.2 820.189 127 C 770.289 57 726.889 0 664.689 0 C 602.489 0 575.289 40.8 498.789 40.8 M 370.589 840.5 C 339.489 877.4 317.489 928.6 317.489 979.8 C 317.489 986.9 318.089 994.1 319.389 999.9 C 369.989 998 430.189 966.2 466.489 924.1 C 494.989 891.7 521.589 840.5 521.589 788.6 C 521.589 780.8 520.289 773 519.689 770.5 C 516.489 769.9 511.289 769.2 506.089 769.2 C 460.689 769.2 403.589 799.6 370.589 840.5 Z" style="fill: rgb(45, 102, 217);" transform="matrix(-1, 0, 0, -1, 999.689026, 999.900024)"/>
</svg>