<?xml version="1.0" encoding="utf-8"?>
<svg width="850px" height="1000" xmlns="http://www.w3.org/2000/svg">
  <path d="M 425.9 40.8 C 349.4 40.8 322.2 0 260 0 C 197.8 0 154.4 57 104.5 127 C 46.7 209.2 0 336.9 0 458.1 C 0 652.5 126.4 755.6 250.8 755.6 C 316.9 755.6 372 712.2 424.845 712.2 C 477.689 712.2 532.789 755.6 598.889 755.6 C 723.289 755.6 849.689 652.5 849.689 458.1 C 849.689 336.9 802.989 209.2 745.189 127 C 695.289 57 651.889 0 589.689 0 C 527.489 0 500.289 40.8 423.789 40.8 M 295.589 840.5 C 264.489 877.4 242.489 928.6 242.489 979.8 C 242.489 986.9 243.089 994.1 244.389 999.9 C 294.989 998 355.189 966.2 391.489 924.1 C 419.989 891.7 446.589 840.5 446.589 788.6 C 446.589 780.8 445.289 773 444.689 770.5 C 441.489 769.9 436.289 769.2 431.089 769.2 C 385.689 769.2 328.589 799.6 295.589 840.5 Z" style="fill: rgb(45, 102, 217);" transform="matrix(-1, 0, 0, -1, 849.689026, 999.900024)"/>
</svg>