<svg version="1.2" xmlns="http://www.w3.org/2000/svg" width="560" height="55">
    <path id="a" fill-rule="evenodd" d="M6.58.46v53.9H0V.46Zm16 53.9V.46h6.74l31.91 43.85V.46h6.47v53.9h-6.74l-31.79-43.7v43.7Zm61.08 0V.46h34.61l-.08 5.7H90.24v19.33h25.1v5.65h-25.1v23.22ZM150.07 0c2.64 0 5.167.32 7.58.96 2.413.64 4.66 1.553 6.74 2.74 2.1 1.18 4 2.603 5.7 4.27a25.992 25.992 0 0 1 4.38 5.5 26.749 26.749 0 0 1 2.85 6.55c.667 2.333 1 4.77 1 7.31s-.333 4.993-1 7.36a27.295 27.295 0 0 1-2.85 6.58 26.922 26.922 0 0 1-4.38 5.54 28.103 28.103 0 0 1-5.7 4.31 29.853 29.853 0 0 1-6.74 2.78c-2.413.64-4.94.96-7.58.96-2.62 0-5.15-.32-7.59-.96a30.476 30.476 0 0 1-6.77-2.78 29.255 29.255 0 0 1-5.7-4.31 28.622 28.622 0 0 1-4.39-5.54 28.245 28.245 0 0 1-2.81-6.58c-.667-2.367-1-4.82-1-7.36s.333-4.977 1-7.31a26.763 26.763 0 0 1 2.81-6.55 27.582 27.582 0 0 1 4.39-5.5 28.032 28.032 0 0 1 5.7-4.27c2.1-1.187 4.357-2.1 6.77-2.74 2.44-.64 4.97-.96 7.59-.96Zm.03 5.66c-2.947 0-5.743.563-8.39 1.69a22.152 22.152 0 0 0-6.89 4.66c-1.947 1.953-3.5 4.25-4.66 6.89-1.127 2.62-1.69 5.43-1.69 8.43 0 2.007.257 3.947.77 5.82a22.707 22.707 0 0 0 2.23 5.23 22.854 22.854 0 0 0 3.39 4.43 22.6 22.6 0 0 0 4.39 3.43c1.613.92 3.333 1.65 5.16 2.19a21.16 21.16 0 0 0 5.69.77c2.953 0 5.74-.563 8.36-1.69 2.62-1.16 4.903-2.727 6.85-4.7 1.953-1.98 3.493-4.29 4.62-6.93 1.127-2.667 1.693-5.517 1.7-8.55-.007-3-.573-5.81-1.7-8.43-1.127-2.64-2.667-4.937-4.62-6.89-1.947-1.973-4.23-3.527-6.85-4.66-2.62-1.127-5.407-1.69-8.36-1.69Zm39.3-5.2h20.67c3.387 0 6.403.41 9.05 1.23 2.64.8 4.873 1.97 6.7 3.51 1.82 1.54 3.203 3.427 4.15 5.66.953 2.233 1.43 4.787 1.43 7.66 0 4.467-1.04 8.173-3.12 11.12-2.08 2.927-5.07 5.02-8.97 6.28l12.7 18.44h-7.5l-11.13-17.25a33.509 33.509 0 0 1-3.31.16h-14.09v17.09h-6.58Zm6.58 31.1h14.09c4.8 0 8.51-1.077 11.13-3.23 2.64-2.18 3.96-5.4 3.96-9.66 0-4.133-1.32-7.253-3.96-9.36-2.62-2.107-6.33-3.16-11.13-3.16h-14.09Zm48.85 22.79V.46h7.93l20.25 39.27L293.15.46h7.93v53.89h-6.13l-.07-44.92-19.94 39.19h-3.93L250.95 9.43v44.92ZM354.09.5h8.93v53.89h-8.93V37.96h-16.883L325.22 54.39h-8.94l11.528-16.43h-10.354v-7.77h15.805Zm23.28-.03h21.48c3.393 0 6.41.41 9.05 1.23 2.647.82 4.88 2.013 6.7 3.58 1.82 1.567 3.207 3.49 4.16 5.77.947 2.26 1.42 4.84 1.42 7.74 0 3.027-.473 5.733-1.42 8.12-.953 2.387-2.34 4.403-4.16 6.05-1.82 1.613-4.053 2.857-6.7 3.73-2.64.847-5.657 1.27-9.05 1.27h-12.39v16.4h-9.09Zm9.09 29.72h12.01c4.153 0 7.36-.91 9.62-2.73 2.26-1.853 3.39-4.663 3.39-8.43 0-3.673-1.13-6.383-3.39-8.13-2.233-1.767-5.44-2.65-9.62-2.65h-12.01ZM428.19.47h21.48c3.387 0 6.403.41 9.05 1.23 2.64.82 4.87 2.013 6.69 3.58 1.827 1.567 3.213 3.49 4.16 5.77.953 2.26 1.43 4.84 1.43 7.74 0 3.027-.477 5.733-1.43 8.12-.947 2.387-2.333 4.403-4.16 6.05-1.82 1.613-4.05 2.857-6.69 3.73-2.647.847-5.663 1.27-9.05 1.27h-12.4v16.4h-9.08Zm9.08 29.72h12.01c4.16 0 7.37-.91 9.63-2.73 2.26-1.847 3.39-4.657 3.39-8.43 0-3.673-1.13-6.38-3.39-8.12-2.233-1.773-5.443-2.66-9.63-2.66h-12.01Zm42.25 24.17V.47h9.08v46.12h23.33v7.77Zm41.06 0V.47h38.5v7.78h-29.41v15.16H556v7.7h-26.33v15.48h30.34l-.01 7.77ZM354.09 30.19V14.82l-11.214 15.37Z" style="fill:#0f1315"/>
</svg>
